Coordinates
version=1
nRows=9
nColumns=63
inDegrees=yes

Units are S.I. units (second, meters, Newtons, ...)
If the header above contains a line with 'inDegrees', this indicates whether rotational values are in degrees (yes) or radians (no).

endheader
time	pelvis_tilt	pelvis_list	pelvis_rotation	pelvis_tx	pelvis_ty	pelvis_tz	hip_flexion_r	hip_adduction_r	hip_rotation_r	knee_angle_r	knee_angle_r_beta	ankle_angle_r	subtalar_angle_r	mtp_angle_r	hip_flexion_l	hip_adduction_l	hip_rotation_l	knee_angle_l	knee_angle_l_beta	ankle_angle_l	subtalar_angle_l	mtp_angle_l	L5_S1_Flex_Ext	L5_S1_Lat_Bending	L5_S1_axial_rotation	L4_L5_Flex_Ext	L4_L5_Lat_Bending	L4_L5_axial_rotation	L3_L4_Flex_Ext	L3_L4_Lat_Bending	L3_L4_axial_rotation	L2_L3_Flex_Ext	L2_L3_Lat_Bending	L2_L3_axial_rotation	L1_L2_Flex_Ext	L1_L2_Lat_Bending	L1_L2_axial_rotation	L1_T12_Flex_Ext	L1_T12_Lat_Bending	L1_T12_axial_rotation	Abs_r3	Abs_r2	Abs_r1	Abs_t1	Abs_t2	neck_flexion	neck_bending	neck_rotation	arm_flex_r	arm_add_r	arm_rot_r	elbow_flex_r	pro_sup_r	wrist_flex_r	wrist_dev_r	arm_flex_l	arm_add_l	arm_rot_l	elbow_flex_l	pro_sup_l	wrist_flex_l	wrist_dev_l
      0.00000000	      1.24216741	     -5.36127795	     89.09863141	      0.24303463	      1.02037011	      0.06840989	     -4.82836238	     -0.10023926	     -5.48479966	      8.35776556	      0.14587053	     28.28227361	     10.43671111	      0.00000000	     -6.01784519	      1.78062344	     -4.89974444	      5.71810518	      0.09979976	     25.28719728	     -8.45678125	      0.00000000	      0.11432849	      0.40688347	      0.77315218	      0.21231945	      0.54115501	      0.82147419	      0.18783028	      0.98929646	      0.82147419	      0.13066604	      0.98929646	      0.67650815	      0.10616544	      0.82971677	      0.62818614	      0.06532730	      0.63026249	      0.57986413	      0.81663700	      4.60274715	      4.30004046	      0.00000000	      0.00000000	     26.09153766	      0.72288994	     -2.54391596	      9.53272818	    -17.08613898	     69.22475381	     62.02693352	     25.25642491	     -0.06499670	      5.77079336	     18.85943752	    -13.36122214	     78.77142301	     58.71914523	     79.72514386	      0.64255118	      4.03811277
      0.01694915	      1.04790082	     -5.37254354	     89.15992473	      0.24374926	      1.02034822	      0.06850026	     -4.89714214	     -0.20018591	     -4.86423128	      8.24458141	      0.14389509	     28.05644910	     10.70405546	      0.00000000	     -6.13014688	      1.90740360	     -4.67387228	      5.47982312	      0.09564096	     24.70260868	     -9.20714330	      0.00000000	      0.11588744	      0.37283238	      0.75914527	      0.21521457	      0.49586706	      0.80659185	      0.19039148	      0.90650464	      0.80659185	      0.13244776	      0.90650464	      0.66425211	      0.10761308	      0.76027978	      0.61680554	      0.06621808	      0.57751735	      0.56935896	      0.82777241	      4.21755439	      4.22213827	      0.00000000	      0.00000000	     26.27490575	      1.11678426	     -2.60629932	      9.95185662	    -16.66471371	     70.03484018	     61.33153179	     25.65948698	     -0.17583176	      5.81854018	     19.01596181	    -13.46253193	     79.31677016	     58.72844823	     80.55243871	      1.17509221	      3.90255217
      0.03389831	      0.96485798	     -5.32108683	     89.21915474	      0.24391085	      1.02022157	      0.06818671	     -5.00609286	     -0.17742961	     -3.42356158	      8.24040608	      0.14382222	     27.78705823	      9.47175839	      0.00000000	     -6.43601818	      2.13228777	     -0.98471096	      4.98062596	      0.08692832	     22.86091669	    -14.77757068	      0.00000000	      0.10980825	      0.36092617	      0.70944672	      0.20392491	      0.48003180	      0.75378714	      0.18040398	      0.87755588	      0.75378714	      0.12549985	      0.87755588	      0.62076588	      0.10196794	      0.73600064	      0.57642546	      0.06274444	      0.55907463	      0.53208504	      0.78434937	      4.08286898	      3.94572980	      0.00000000	      0.00000000	     26.41255939	      1.37440064	     -2.25116682	     10.35002672	    -16.44137503	     71.05754713	     60.63417949	     26.97723163	      0.89305849	      4.77875806	     18.42477020	    -13.43665203	     77.98859766	     58.56968693	     84.34680380	      3.02002143	      3.39738826
      0.05084746	      0.86817485	     -5.29261728	     88.87109970	      0.24468655	      1.02004058	      0.06794957	     -5.03183826	     -0.25687095	     -2.46610876	      8.27791504	      0.14447687	     27.64797023	      8.98909672	      0.00000000	     -6.62611067	      2.25530622	     -1.61619431	      4.75930517	      0.08306555	     22.75659306	    -14.51364306	      0.00000000	      0.10777480	      0.34499510	      0.79872110	      0.20014859	      0.45884348	      0.84864117	      0.17706322	      0.83882108	      0.84864117	      0.12317582	      0.83882108	      0.69888096	      0.10007968	      0.70351400	      0.64896089	      0.06158252	      0.53439740	      0.59904082	      0.76982464	      3.90265353	      4.44224712	      0.00000000	      0.00000000	     26.53090640	      1.29374950	     -2.48326642	      9.97778114	    -16.24682332	     70.42094404	     60.37523278	     27.96046096	      1.21981446	      5.51610181	     18.87541534	    -13.40346405	     79.11254959	     58.72022418	     84.92684110	      2.60030157	      3.59284859
      0.06779661	      0.85446233	     -5.22221636	     89.64727090	      0.24382501	      1.01984605	      0.06749798	     -5.31677089	     -0.17119547	     -3.04374136	      8.10943090	      0.14153627	     27.50091033	      8.73492325	      0.00000000	     -6.78616217	      2.22174117	      0.16061401	      4.58829696	      0.08008089	     22.23281323	    -15.97517963	      0.00000000	      0.10411642	      0.33927951	      0.62219611	      0.19335461	      0.45124175	      0.66108336	      0.17105287	      0.82492420	      0.66108336	      0.11899466	      0.82492420	      0.54442159	      0.09668251	      0.69185878	      0.50553434	      0.05949212	      0.52554396	      0.46664708	      0.74369318	      3.83799767	      3.46046809	      0.00000000	      0.00000000	     26.60394754	      1.26239647	     -2.28734368	      9.98052901	    -16.06378441	     70.65874948	     60.31054387	     27.64793756	      0.77920928	      6.01777348	     18.70348505	    -13.53968837	     78.87967001	     58.96319583	     85.75483089	      2.77187433	      3.82954693
      0.08474576	      0.86308195	     -5.18684777	     89.77534257	      0.24377658	      1.01963307	      0.06698229	     -5.46230245	     -0.08213672	     -2.27608885	      8.01486772	      0.13988583	     27.25016055	      7.36681021	      0.00000000	     -6.94777293	      2.22424233	      0.36538409	      4.42296867	      0.07719537	     22.13106118	    -16.07366736	      0.00000000	      0.10604382	      0.33822109	      0.59650609	      0.19693398	      0.44983405	      0.63378772	      0.17421939	      0.82235076	      0.63378772	      0.12119748	      0.82235076	      0.52194283	      0.09847229	      0.68970045	      0.48466120	      0.06059344	      0.52390447	      0.44737957	      0.75746040	      3.82602462	      3.31758791	      0.00000000	      0.00000000	     26.65373092	      1.05488546	     -2.26805946	      9.65599969	    -16.01126147	     70.45875605	     60.44430866	     26.71736523	      0.28020077	      6.33135495	     18.80278433	    -13.57427158	     79.30125154	     59.15826732	     86.03441143	      2.17445834	      3.94564502
      0.10169492	      0.88795912	     -5.13335515	     89.97986691	      0.24353512	      1.01950112	      0.06650108	     -5.61066421	     -0.04425916	     -2.60266899	      7.97424449	      0.13917682	     27.21588313	      7.30131357	      0.00000000	     -7.09406120	      2.19899297	      0.25849597	      4.32253995	      0.07544255	     22.18930783	    -15.62464407	      0.00000000	      0.10519120	      0.34084743	      0.55381818	      0.19535057	      0.45332708	      0.58843182	      0.17281862	      0.82873644	      0.58843182	      0.12022302	      0.82873644	      0.48459091	      0.09768055	      0.69505608	      0.44997727	      0.06010625	      0.52797267	      0.41536364	      0.75137021	      3.85573429	      3.08017059	      0.00000000	      0.00000000	     26.67532161	      0.83076456	     -2.13832156	      9.41362314	    -16.00084586	     70.18863183	     60.44878761	     27.36533197	      0.46906619	      6.73701664	     18.94667750	    -13.63103887	     79.86075216	     59.34467101	     86.26223251	      0.72193207	      3.59264863
      0.11864407	      0.93193871	     -5.07574494	     90.32786755	      0.24305374	      1.01944815	      0.06598594	     -5.78851406	      0.00863179	     -3.39768061	      7.88462390	      0.13761265	     27.29017745	      7.80189023	      0.00000000	     -7.21598036	      2.14237591	      0.37531885	      4.26633992	      0.07446168	     22.11259471	    -15.44940242	      0.00000000	      0.10563319	      0.34432949	      0.49867591	      0.19617139	      0.45795822	      0.52984315	      0.17354476	      0.83720271	      0.52984315	      0.12072817	      0.83720271	      0.43634142	      0.09809098	      0.70215669	      0.40517417	      0.06035880	      0.53336638	      0.37400693	      0.75452729	      3.89512402	      2.77348578	      0.00000000	      0.00000000	     26.64860044	      0.49656045	     -2.24720501	      9.23935148	    -16.05777763	     70.23638189	     60.47101628	     26.64585167	      0.62848711	      6.59180828	     19.06017786	    -13.63321746	     80.10929462	     59.45189171	     86.39156394	      0.12185921	      3.58031101
      0.13559322	      0.96857331	     -5.03891887	     90.63326497	      0.24264118	      1.01946453	      0.06542485	     -5.90974621	      0.04431680	     -4.25519749	      7.85227667	      0.13704808	     27.41989288	      8.59598757	      0.00000000	     -7.33265242	      2.09200397	      0.31771783	      4.18341943	      0.07301444	     21.90021128	    -15.25772486	      0.00000000	      0.10802049	      0.34432062	      0.47953079	      0.20060484	      0.45794643	      0.50950147	      0.17746686	      0.83718117	      0.50950147	      0.12345661	      0.83718117	      0.41958944	      0.10030782	      0.70213862	      0.38961877	      0.06172291	      0.53335265	      0.35964809	      0.77157952	      3.89502377	      2.66700641	      0.00000000	      0.00000000	     26.64046610	     -0.00660290	     -2.76662357	      8.84294718	    -16.10515788	     69.85237918	     60.39422106	     26.03234043	      0.99523065	      6.51177434	     19.24202143	    -13.55525426	     80.51487387	     59.30254529	     86.34816262	     -0.51660794	      2.99905173
